<svg width="96" height="96" xmlns="http://www.w3.org/2000/svg" xmlns:xlink="http://www.w3.org/1999/xlink" xml:space="preserve" overflow="hidden"><g transform="translate(-592 -312)"><path d="M641 320.661 607 341.267 607 379.394 641 400 675 379.394 675 341.267ZM672.071 341.831 657.75 350.51 626.679 331.679 641 323ZM641 360.661 609.929 341.831 624.75 332.848 655.821 351.679ZM609 343.605 640 362.394 640 397.055 609 378.267ZM642 397.055 642 362.394 673 343.605 673 378.267Z" fill="#E23692"/><path d="M646.971 364.115 646 364.7 646 373.365 649.029 371.548 654.029 368.548 655 367.963 655 359.3 651.971 361.117ZM653 366.831 648 369.831 648 365.831 653 362.831Z" fill="#E23692"/></g></svg>