<svg width="2137" height="501" viewBox="0 0 2137 501" fill="none" xmlns="http://www.w3.org/2000/svg">
<path d="M18.8074 289.785V398.968H0V126.651H65.7218C93.6923 126.651 115.075 133.141 129.902 146.108C144.717 159.095 152.124 178.052 152.124 202.986C152.124 228.316 143.852 249.107 127.34 265.371C110.815 281.643 87.6833 289.785 57.9179 289.785H18.8074ZM18.8074 143.923V272.492H57.5538C82.1165 272.492 100.781 266.64 113.566 254.94C126.358 243.221 132.751 226.664 132.751 205.268C132.751 164.376 109.268 143.923 62.3075 143.923H18.8074Z" fill="#333F49"/>
<path d="M263.967 403.722C235.613 403.722 213.183 394.383 196.652 375.712C180.127 357.035 171.875 332.765 171.875 302.876C171.875 270.6 180.511 245.342 197.796 227.113C215.082 208.884 237.837 199.78 266.068 199.78C293.791 199.78 315.7 208.819 331.776 226.918C347.853 245.023 355.884 270.093 355.884 302.121C355.884 332.362 347.69 356.872 331.295 375.615C314.907 394.338 292.464 403.722 263.967 403.722ZM265.3 215.706C242.389 215.706 224.128 223.439 210.51 238.897C196.899 254.329 190.097 275.783 190.097 303.26C190.097 328.707 196.756 349.159 210.042 364.592C223.335 380.05 241.505 387.763 264.539 387.763C287.964 387.763 306.011 380.167 318.672 364.975C331.328 349.784 337.655 328.707 337.655 301.731C337.655 274.014 331.367 252.755 318.757 237.941C306.167 223.12 288.354 215.706 265.3 215.706Z" fill="#333F49"/>
<path d="M568.963 398.968H552.633L510.277 252.372C509.146 248.32 508.125 242.883 507.253 236.035H506.284C506.044 238.942 504.763 244.269 502.5 251.994L455.019 398.968H438.69L380.004 204.501H399.371L444.569 359.656C445.707 363.714 446.611 369.144 447.228 376.005H448.744C449.01 372.331 450.213 366.874 452.366 359.656L501.752 204.501H513.705L557.758 359.656C558.772 363.343 559.657 368.773 560.418 376.005H561.939C561.939 372.331 563.006 366.874 565.165 359.656L611.305 204.501H629.352L568.963 398.968Z" fill="#333F49"/>
<path d="M671.513 302.505C671.513 329.214 677.684 350.102 690.034 365.164C702.371 380.245 719.305 387.763 740.837 387.763C762.604 387.763 783.889 379.725 804.634 363.636V382.268C784.513 396.575 762.038 403.722 737.221 403.722C712.151 403.722 691.9 394.728 676.455 376.759C661.003 358.771 653.297 333.396 653.297 300.606C653.297 272.239 661.355 248.346 677.496 228.914C693.643 209.483 714.622 199.78 740.447 199.78C764.626 199.78 783.173 208.234 796.095 225.214C809.004 242.168 815.462 265.352 815.462 294.714V302.505H671.513ZM797.227 286.559C796.473 264.136 791.094 246.72 781.092 234.319C771.09 221.917 757.29 215.706 739.693 215.706C721.464 215.706 706.363 221.826 694.391 234.052C682.431 246.272 675.063 263.746 672.26 286.559H797.227Z" fill="#333F49"/>
<path d="M955.406 222.743C949.598 218.568 942.757 216.474 934.921 216.474C919.586 216.474 906.742 224.388 896.356 240.217C885.977 256.026 880.787 278.521 880.787 307.63V398.968H863.69V204.501H880.787V247.618H881.548C885.977 232.797 893.007 221.279 902.625 213.053C912.257 204.826 923.397 200.703 936.058 200.703C943.258 200.703 949.722 201.848 955.406 204.124V222.743Z" fill="#333F49"/>
<path d="M995.882 398.968V126.651H1067.48C1088.87 126.651 1105.9 132.406 1118.54 143.923C1131.2 155.454 1137.53 170.71 1137.53 189.693C1137.53 205.522 1133.34 219.237 1124.91 230.813C1116.5 242.402 1104.76 250.59 1089.68 255.395V256.169C1108.55 257.938 1123.42 264.682 1134.32 276.381C1145.2 288.1 1150.63 302.999 1150.63 321.104C1150.63 344.028 1143.24 362.732 1128.42 377.234C1113.62 391.723 1093.8 398.968 1068.98 398.968H995.882ZM1014.67 143.923V249.328H1052.66C1072.41 249.328 1088.23 244.268 1100.13 234.136C1112.03 224.011 1117.97 210.269 1117.97 192.925C1117.97 160.259 1098.67 143.923 1060.06 143.923H1014.67ZM1014.67 266.412V381.89H1065.17C1086.57 381.89 1102.96 376.759 1114.27 366.497C1125.61 356.241 1131.26 341.687 1131.26 322.808C1131.26 285.219 1105.76 266.412 1054.75 266.412H1014.67Z" fill="#333F49"/>
<path d="M1207.44 398.967V126.65H1226.23V398.967H1207.44Z" fill="#333F49"/>
<path d="M1309.86 411.083C1303.87 411.083 1298.88 409.009 1294.85 404.892C1290.81 400.776 1288.79 395.723 1288.79 389.772C1288.79 383.62 1290.81 378.567 1294.85 374.626C1298.88 370.672 1303.87 368.702 1309.86 368.702C1315.81 368.702 1320.89 370.672 1325.12 374.626C1329.33 378.567 1331.44 383.62 1331.44 389.772C1331.44 395.723 1329.33 400.776 1325.12 404.892C1320.89 409.009 1315.81 411.083 1309.86 411.083Z" fill="#333F49"/>
<path d="M1503.99 347.989C1497.06 398.2 1505.8 423.31 1556.74 423.31C1568.03 423.31 1579.67 421.482 1579.67 407.669C1579.67 397.862 1570.2 396.393 1562.56 396.393C1560.38 396.393 1557.83 396.75 1555.65 396.75C1529.45 396.75 1527.61 382.918 1532.72 345.44L1542.91 273.032H1580.76C1588.76 273.032 1596.05 266.477 1596.05 257.743C1596.05 251.221 1591.31 246.115 1584.76 246.115H1546.93L1553.83 195.897C1554.91 188.243 1550.54 182.065 1541.45 182.065C1532.35 182.065 1526.53 188.243 1525.45 195.897L1503.99 347.989Z" fill="#333F49"/>
<path d="M1678.28 176.615C1678.28 167.868 1672.1 161.32 1662.99 161.32C1652.44 161.32 1642.97 170.053 1642.97 180.608C1642.97 189.349 1649.17 196.249 1658.26 196.249C1668.81 196.249 1678.28 187.157 1678.28 176.615ZM1617.14 387.646C1612.42 420.403 1625.52 424.76 1634.61 424.76C1642.62 424.76 1649.9 418.218 1649.9 410.583C1649.9 408.033 1648.8 405.848 1648.08 404.762C1644.42 400.399 1644.42 395.664 1645.54 387.646L1664.82 250.102C1665.89 242.467 1660.46 235.918 1652.44 235.918C1644.42 235.918 1637.53 242.467 1636.43 250.102L1617.14 387.646Z" fill="#333F49"/>
<path d="M1767.43 424.408C1813.64 424.408 1832.21 394.207 1838.38 350.896L1845.31 303.598C1851.11 262.842 1834.99 237.668 1796.89 234.813C1777.85 233.401 1758.41 238.324 1741.58 250.837C1727.4 261.392 1718.31 276.752 1717.94 287.587L1689.92 486.261C1688.83 493.902 1693.2 500.093 1702.29 500.093C1711.4 500.093 1717.22 493.902 1718.31 486.261L1728.13 417.489C1740.49 421.853 1755.06 424.408 1767.43 424.408ZM1744.43 303.448C1745.17 299.084 1746.48 286.787 1746.87 286.078C1754.62 271.641 1775.07 262.308 1787.44 262.308C1811.45 262.308 1820.92 275.23 1816.9 303.598L1810 350.896C1805.26 384.745 1793.63 399.664 1767.06 399.664C1757.98 399.664 1742.31 397.485 1731.76 392.022L1744.43 303.448Z" fill="#333F49"/>
<path d="M1882.42 294.506C1882.42 335.626 1926.08 338.527 1945.72 350.174C1951.55 353.458 1956.28 358.544 1956.28 368.734C1956.28 390.208 1941 399.664 1918.8 399.664C1904.25 399.664 1893.33 395.293 1883.5 391.294C1882.42 390.923 1882.04 390.566 1879.86 390.566C1870.4 390.566 1864.59 398.578 1864.59 405.12C1864.59 420.767 1897.33 424.76 1915.16 424.76C1960.29 424.76 1984.3 400.399 1984.3 364C1984.3 323.979 1946.82 320.337 1924.98 308.69C1915.16 303.598 1910.79 297.771 1910.79 289.05C1910.79 270.496 1922.07 259.928 1947.18 259.928C1960.29 259.928 1966.46 262.842 1973.74 266.477C1975.93 267.583 1977.38 268.298 1979.93 268.298C1988.29 268.298 1995.21 261.392 1995.21 253.744C1995.21 239.554 1967.57 234.813 1949.37 234.813C1906.43 234.813 1882.42 259.928 1882.42 294.506Z" fill="#333F49"/>
<path d="M2028.36 422.646H2044.4C2095.06 422.646 2136.51 381.195 2136.51 330.534V92.1055C2136.51 41.4452 2095.06 0 2044.4 0H1449.8C1399.14 0 1357.69 41.4452 1357.69 92.1055V330.534C1357.69 381.195 1399.14 422.646 1449.8 422.646H1466.74V387.412L1449.8 387.561C1418.36 387.561 1392.78 361.977 1392.78 330.541V92.1055C1392.78 60.6688 1418.36 35.085 1449.8 35.085H2044.4C2075.84 35.085 2101.42 60.6688 2101.42 92.1055V330.541C2101.42 361.977 2075.84 387.561 2044.4 387.561L2028.36 387.412V422.646Z" fill="#F2C80F"/>
</svg>
