<svg width="114" height="114" xmlns="http://www.w3.org/2000/svg" xmlns:xlink="http://www.w3.org/1999/xlink" xml:space="preserve" overflow="hidden"><defs><clipPath id="clip0"><path d="M583.255 322.744 677.256 303.255 696.745 397.256 602.744 416.745Z" fill-rule="evenodd" clip-rule="evenodd"/></clipPath><clipPath id="clip1"><path d="M583.255 322.744 677.256 303.255 696.745 397.256 602.744 416.745Z" fill-rule="evenodd" clip-rule="evenodd"/></clipPath><clipPath id="clip2"><path d="M583.255 322.744 677.256 303.255 696.745 397.256 602.744 416.745Z" fill-rule="evenodd" clip-rule="evenodd"/></clipPath></defs><g transform="translate(-583 -303)"><g clip-path="url(#clip0)"><g clip-path="url(#clip1)"><g clip-path="url(#clip2)"><path d="M635.456 399.657C635.456 399.657 657.29 374.431 653.966 358.4 652.616 351.89 645.144 346.351 638.233 347.784 633.8 348.704 629.596 352.489 627.385 360.726 622.081 354.048 616.719 352.245 612.285 353.164 605.373 354.597 600.72 362.648 602.07 369.16 605.393 385.19 635.456 399.657 635.456 399.657ZM605.78 360.309C607.283 357.713 609.778 355.84 612.691 355.122 617.01 354.227 621.549 356.595 625.819 361.97L628.287 365.078 629.316 361.245C631.096 354.615 634.32 350.638 638.639 349.743 644.198 348.59 650.82 353.079 652.008 358.806 654.7 371.791 639.088 392.053 634.937 397.154 629.1 394.123 606.723 381.751 604.028 368.754 603.544 365.819 604.168 362.809 605.78 360.309Z" fill="#E23692"/><path d="M661.408 316.059C658.358 316.691 655.466 319.296 653.944 324.96 650.31 320.384 646.635 319.135 643.593 319.752L643.557 319.76C638.8 320.746 635.599 326.285 636.528 330.765 638.814 341.795 659.498 351.748 659.498 351.748 659.498 351.748 674.52 334.392 672.233 323.362 671.305 318.883 666.164 315.073 661.408 316.059ZM658.98 349.249C652.73 345.99 640.066 337.982 638.486 330.359 638.184 328.496 638.585 326.588 639.611 325.004 640.555 323.363 642.125 322.177 643.962 321.719L643.99 321.713C646.708 321.165 649.611 322.716 652.377 326.204L654.845 329.312 655.874 325.478C657.034 321.16 659.088 318.582 661.813 318.017 665.566 317.239 669.602 320.529 670.274 323.769 671.855 331.391 663.419 343.774 658.98 349.249Z" fill="#E23692"/></g></g></g></g></svg>